<?xml version="1.0" encoding="UTF-8"?>
<svg width="500" height="500" aria-labelledby="title desc" version="1.1" viewBox="0 0 500 500" xmlns="http://www.w3.org/2000/svg" xmlns:cc="http://creativecommons.org/ns#" xmlns:dc="http://purl.org/dc/elements/1.1/" xmlns:rdf="http://www.w3.org/1999/02/22-rdf-syntax-ns#">
 <title>Daemonless</title>
 <desc>The official logo of the Daemonless project — FreeBSD-native containers.</desc>
 <path d="m35.62 379.47c-0.3-1.54-0.77-245.48 0.13-251.97 1.62-1.09 170.23-101.74 205.84-123 4.26-2.55 155.2 94.7 221.83 129.31 0.25 67.12 3.19 244.17-0.46 246.33-63.66 37.61-133.1 77.34-197.2 114.57-0.53-35.12-0.29-69.7-0.73-104.28-0.09-7.1 2.38-10.98 8.21-14.34 23.89-13.78 47.6-27.86 71.35-41.88 8.97-5.29 17.86-10.71 25.73-15.43-5.79-20.06-11.71-38.62-16.42-57.48-4.19-16.75-6.76-33.84-3.89-51.25 1.09-6.58 1.79-7.02 7.46-3.92 3.02 1.66 6.21 3.03 9.85 4.79v-81.32c-2.77 1.67-4.85 2.5-6.4 3.91-6.62 6-13.67 11.65-19.49 18.36-20.4 23.51-28.61 51.04-26.6 82.06 1.37 21.2 5.92 41.65 12.35 61.75 1.64 5.13 0.4 8.05-4.41 10.76-14.06 7.91-27.8 16.39-41.7 24.6-4.69 2.77-9.47 5.39-15.31 8.71v-192.87l27.1 6.86-45.01-82.36-43.66 80.03 1.55 1.6 24.04-5.66v192.02c-4.32-2.29-7.7-3.94-10.93-5.83-13.94-8.15-27.75-16.52-41.77-24.51-10.56-6.02-10.02-6.09-7.35-17.74 4.54-19.81 9.85-39.74 11.34-59.87 2.57-34.97-10.44-65.02-35.63-89.47-4.79-4.65-10.61-8.24-17.14-13.23v82.4c3.99-2.01 7.3-3.3 10.2-5.21 4.43-2.93 6.92-1.94 6.92 3.27-0.01 11.81 0.39 23.7-0.77 35.41-2.29 23.13-9.44 45.12-18.07 66.59-2.24 5.6-0.63 8.54 4.29 11.38 31.62 18.3 63.1 36.83 94.69 55.19 3.77 2.2 4.96 5.06 4.94 9.35-0.16 36.15-0.11 72.3-0.12 108.45z" fill="#384658" stroke="#26334a" stroke-linecap="round" stroke-linejoin="round" stroke-width="8"/>
 <path d="m230.67 495.93c-0.23-36.27-0.28-72.54-0.12-108.81 0.02-4.29-1.17-7.15-4.95-9.34-31.58-18.36-63.06-36.9-94.69-55.2-4.91-2.84-6.53-5.78-4.28-11.38 8.63-21.47 15.77-43.46 18.07-66.59 1.16-11.71 0.75-23.6 0.76-35.41 0.01-5.21-2.48-6.2-6.92-3.27-2.9 1.91-6.21 3.2-10.2 5.21v-82.4c6.54 4.99 12.35 8.58 17.14 13.23 25.2 24.45 38.2 54.5 35.63 89.47-1.48 20.14-6.79 40.06-11.33 59.87-2.68 11.65-3.21 11.72 7.35 17.74 14.02 8 27.83 16.36 41.76 24.51 3.24 1.9 6.62 3.54 10.93 5.83v-192.02l-24.03 5.66-1.55-1.6 43.65-80.03 45.02 82.36-27.1-6.86v192.87c5.84-3.32 10.61-5.94 15.31-8.71 13.89-8.21 27.64-16.69 41.7-24.61 4.81-2.71 6.05-5.62 4.41-10.75-6.43-20.11-10.98-40.55-12.36-61.75-2.01-31.02 6.2-58.56 26.6-82.06 5.83-6.71 12.88-12.37 19.5-18.36 1.55-1.41 3.62-2.25 6.4-3.91v81.32c-3.65-1.76-6.83-3.13-9.86-4.79-5.66-3.1-6.36-2.66-7.45 3.92-2.87 17.41-0.3 34.5 3.88 51.25 4.71 18.86 10.64 37.42 16.43 57.47-7.87 4.73-16.77 10.15-25.73 15.44-23.75 14.01-47.46 28.1-71.35 41.87-5.84 3.37-8.3 7.25-8.21 14.35 0.43 34.58 0.2 69.16 0.25 104.39-0.07 0.83-0.16 1.05-0.32 1.2-11.29 10.36-22.64 10.99-34.33-0.11z" fill="#e24543" stroke="#e24543" stroke-linecap="round" stroke-linejoin="round" stroke-width="6"/>
 <metadata>
  <rdf:RDF>
   <cc:Work rdf:about="">
    <dc:title>Daemonless Logo</dc:title>
   </cc:Work>
  </rdf:RDF>
 </metadata>
</svg>
